<?xml version="1.0" encoding="UTF-8" standalone="no"?><svg xmlns="http://www.w3.org/2000/svg" xmlns:xlink="http://www.w3.org/1999/xlink" contentScriptType="application/ecmascript" contentStyleType="text/css" height="429px" preserveAspectRatio="none" style="width:758px;height:429px;" version="1.1" viewBox="0 0 758 429" width="758px" zoomAndPan="magnify"><defs><filter height="300%" id="fc7xkw7uuh8oo" width="300%" x="-1" y="-1"><feGaussianBlur result="blurOut" stdDeviation="2.0"/><feColorMatrix in="blurOut" result="blurOut2" type="matrix" values="0 0 0 0 0 0 0 0 0 0 0 0 0 0 0 0 0 0 .4 0"/><feOffset dx="4.0" dy="4.0" in="blurOut2" result="blurOut3"/><feBlend in="SourceGraphic" in2="blurOut3" mode="normal"/></filter></defs><g><text fill="#000000" font-family="sans-serif" font-size="14" font-weight="bold" lengthAdjust="spacingAndGlyphs" textLength="153" x="303.75" y="23.5352">"Friend Request (FR)"</text><line style="stroke: #A80036; stroke-width: 1.0; stroke-dasharray: 5.0,5.0;" x1="56" x2="56" y1="116.9766" y2="342.1504"/><line style="stroke: #A80036; stroke-width: 1.0; stroke-dasharray: 5.0,5.0;" x1="228.5" x2="228.5" y1="116.9766" y2="342.1504"/><line style="stroke: #A80036; stroke-width: 1.0; stroke-dasharray: 5.0,5.0;" x1="407.5" x2="407.5" y1="116.9766" y2="342.1504"/><line style="stroke: #A80036; stroke-width: 1.0; stroke-dasharray: 5.0,5.0;" x1="500.5" x2="500.5" y1="116.9766" y2="342.1504"/><line style="stroke: #A80036; stroke-width: 1.0; stroke-dasharray: 5.0,5.0;" x1="609.5" x2="609.5" y1="116.9766" y2="342.1504"/><line style="stroke: #A80036; stroke-width: 1.0; stroke-dasharray: 5.0,5.0;" x1="720.5" x2="720.5" y1="116.9766" y2="342.1504"/><text fill="#000000" font-family="sans-serif" font-size="14" lengthAdjust="spacingAndGlyphs" textLength="90" x="8" y="114.0234">New Friend X</text><ellipse cx="56" cy="43.4883" fill="#FEFECE" filter="url(#fc7xkw7uuh8oo)" rx="8" ry="8" style="stroke: #A80036; stroke-width: 2.0;"/><path d="M56,51.4883 L56,78.4883 M43,59.4883 L69,59.4883 M56,78.4883 L43,93.4883 M56,78.4883 L69,93.4883 " fill="#FEFECE" filter="url(#fc7xkw7uuh8oo)" style="stroke: #A80036; stroke-width: 2.0;"/><text fill="#000000" font-family="sans-serif" font-size="14" lengthAdjust="spacingAndGlyphs" textLength="90" x="8" y="354.6855">New Friend X</text><ellipse cx="56" cy="367.6387" fill="#FEFECE" filter="url(#fc7xkw7uuh8oo)" rx="8" ry="8" style="stroke: #A80036; stroke-width: 2.0;"/><path d="M56,375.6387 L56,402.6387 M43,383.6387 L69,383.6387 M56,402.6387 L43,417.6387 M56,402.6387 L69,417.6387 " fill="#FEFECE" filter="url(#fc7xkw7uuh8oo)" style="stroke: #A80036; stroke-width: 2.0;"/><text fill="#000000" font-family="sans-serif" font-size="14" lengthAdjust="spacingAndGlyphs" textLength="101" x="175.5" y="97.5352">Soical Network</text><text fill="#000000" font-family="sans-serif" font-size="14" lengthAdjust="spacingAndGlyphs" textLength="40" x="206" y="114.0234">Client</text><path d="M208.5,56 L208.5,80 M208.5,68 L225.5,68 " fill="#FEFECE" filter="url(#fc7xkw7uuh8oo)" style="stroke: #A80036; stroke-width: 2.0;"/><ellipse cx="237.5" cy="68" fill="#FEFECE" filter="url(#fc7xkw7uuh8oo)" rx="12" ry="12" style="stroke: #A80036; stroke-width: 2.0;"/><text fill="#000000" font-family="sans-serif" font-size="14" lengthAdjust="spacingAndGlyphs" textLength="101" x="175.5" y="354.6855">Soical Network</text><text fill="#000000" font-family="sans-serif" font-size="14" lengthAdjust="spacingAndGlyphs" textLength="40" x="206" y="371.1738">Client</text><path d="M208.5,378.127 L208.5,402.127 M208.5,390.127 L225.5,390.127 " fill="#FEFECE" filter="url(#fc7xkw7uuh8oo)" style="stroke: #A80036; stroke-width: 2.0;"/><ellipse cx="237.5" cy="390.127" fill="#FEFECE" filter="url(#fc7xkw7uuh8oo)" rx="12" ry="12" style="stroke: #A80036; stroke-width: 2.0;"/><text fill="#000000" font-family="sans-serif" font-size="14" lengthAdjust="spacingAndGlyphs" textLength="67" x="371.5" y="97.5352">Friend Y's</text><text fill="#000000" font-family="sans-serif" font-size="14" lengthAdjust="spacingAndGlyphs" textLength="37" x="386.5" y="114.0234">FOAF</text><path d="M387.5,56 L387.5,80 M387.5,68 L404.5,68 " fill="#FEFECE" filter="url(#fc7xkw7uuh8oo)" style="stroke: #A80036; stroke-width: 2.0;"/><ellipse cx="416.5" cy="68" fill="#FEFECE" filter="url(#fc7xkw7uuh8oo)" rx="12" ry="12" style="stroke: #A80036; stroke-width: 2.0;"/><text fill="#000000" font-family="sans-serif" font-size="14" lengthAdjust="spacingAndGlyphs" textLength="67" x="371.5" y="354.6855">Friend Y's</text><text fill="#000000" font-family="sans-serif" font-size="14" lengthAdjust="spacingAndGlyphs" textLength="37" x="386.5" y="371.1738">FOAF</text><path d="M387.5,378.127 L387.5,402.127 M387.5,390.127 L404.5,390.127 " fill="#FEFECE" filter="url(#fc7xkw7uuh8oo)" style="stroke: #A80036; stroke-width: 2.0;"/><ellipse cx="416.5" cy="390.127" fill="#FEFECE" filter="url(#fc7xkw7uuh8oo)" rx="12" ry="12" style="stroke: #A80036; stroke-width: 2.0;"/><text fill="#000000" font-family="sans-serif" font-size="14" lengthAdjust="spacingAndGlyphs" textLength="67" x="464" y="97.5352">Friend Y's</text><text fill="#000000" font-family="sans-serif" font-size="14" lengthAdjust="spacingAndGlyphs" textLength="86" x="454.5" y="114.0234">Private Node</text><ellipse cx="500.5" cy="68" fill="#FEFECE" filter="url(#fc7xkw7uuh8oo)" rx="12" ry="12" style="stroke: #A80036; stroke-width: 2.0;"/><polygon fill="#A80036" points="496.5,56,502.5,51,500.5,56,502.5,61,496.5,56" style="stroke: #A80036; stroke-width: 1.0;"/><text fill="#000000" font-family="sans-serif" font-size="14" lengthAdjust="spacingAndGlyphs" textLength="67" x="464" y="354.6855">Friend Y's</text><text fill="#000000" font-family="sans-serif" font-size="14" lengthAdjust="spacingAndGlyphs" textLength="86" x="454.5" y="371.1738">Private Node</text><ellipse cx="500.5" cy="390.127" fill="#FEFECE" filter="url(#fc7xkw7uuh8oo)" rx="12" ry="12" style="stroke: #A80036; stroke-width: 2.0;"/><polygon fill="#A80036" points="496.5,378.127,502.5,373.127,500.5,378.127,502.5,383.127,496.5,378.127" style="stroke: #A80036; stroke-width: 1.0;"/><text fill="#000000" font-family="sans-serif" font-size="14" lengthAdjust="spacingAndGlyphs" textLength="101" x="556.5" y="97.5352">Soical Network</text><text fill="#000000" font-family="sans-serif" font-size="14" lengthAdjust="spacingAndGlyphs" textLength="40" x="587" y="114.0234">Client</text><path d="M589.5,56 L589.5,80 M589.5,68 L606.5,68 " fill="#FEFECE" filter="url(#fc7xkw7uuh8oo)" style="stroke: #A80036; stroke-width: 2.0;"/><ellipse cx="618.5" cy="68" fill="#FEFECE" filter="url(#fc7xkw7uuh8oo)" rx="12" ry="12" style="stroke: #A80036; stroke-width: 2.0;"/><text fill="#000000" font-family="sans-serif" font-size="14" lengthAdjust="spacingAndGlyphs" textLength="101" x="556.5" y="354.6855">Soical Network</text><text fill="#000000" font-family="sans-serif" font-size="14" lengthAdjust="spacingAndGlyphs" textLength="40" x="587" y="371.1738">Client</text><path d="M589.5,378.127 L589.5,402.127 M589.5,390.127 L606.5,390.127 " fill="#FEFECE" filter="url(#fc7xkw7uuh8oo)" style="stroke: #A80036; stroke-width: 2.0;"/><ellipse cx="618.5" cy="390.127" fill="#FEFECE" filter="url(#fc7xkw7uuh8oo)" rx="12" ry="12" style="stroke: #A80036; stroke-width: 2.0;"/><text fill="#000000" font-family="sans-serif" font-size="14" lengthAdjust="spacingAndGlyphs" textLength="57" x="689.5" y="114.0234">Friend Y</text><ellipse cx="721" cy="43.4883" fill="#FEFECE" filter="url(#fc7xkw7uuh8oo)" rx="8" ry="8" style="stroke: #A80036; stroke-width: 2.0;"/><path d="M721,51.4883 L721,78.4883 M708,59.4883 L734,59.4883 M721,78.4883 L708,93.4883 M721,78.4883 L734,93.4883 " fill="#FEFECE" filter="url(#fc7xkw7uuh8oo)" style="stroke: #A80036; stroke-width: 2.0;"/><text fill="#000000" font-family="sans-serif" font-size="14" lengthAdjust="spacingAndGlyphs" textLength="57" x="689.5" y="354.6855">Friend Y</text><ellipse cx="721" cy="367.6387" fill="#FEFECE" filter="url(#fc7xkw7uuh8oo)" rx="8" ry="8" style="stroke: #A80036; stroke-width: 2.0;"/><path d="M721,375.6387 L721,402.6387 M708,383.6387 L734,383.6387 M721,402.6387 L708,417.6387 M721,402.6387 L734,417.6387 " fill="#FEFECE" filter="url(#fc7xkw7uuh8oo)" style="stroke: #A80036; stroke-width: 2.0;"/><polygon fill="#A80036" points="217,143.9766,227,147.9766,217,151.9766,221,147.9766" style="stroke: #A80036; stroke-width: 1.0;"/><line style="stroke: #A80036; stroke-width: 1.0;" x1="56" x2="223" y1="147.9766" y2="147.9766"/><text fill="#000000" font-family="sans-serif" font-size="13" lengthAdjust="spacingAndGlyphs" textLength="149" x="63" y="143.5449">1. URL of Friend Y FOAF</text><polygon fill="#A80036" points="396,173.2871,406,177.2871,396,181.2871,400,177.2871" style="stroke: #A80036; stroke-width: 1.0;"/><line style="stroke: #A80036; stroke-width: 1.0;" x1="229" x2="402" y1="177.2871" y2="177.2871"/><text fill="#000000" font-family="sans-serif" font-size="13" lengthAdjust="spacingAndGlyphs" textLength="155" x="236" y="172.8555">2. Gets Private Node URL</text><polygon fill="#A80036" points="488.5,202.5977,498.5,206.5977,488.5,210.5977,492.5,206.5977" style="stroke: #A80036; stroke-width: 1.0;"/><line style="stroke: #A80036; stroke-width: 1.0;" x1="229" x2="494.5" y1="206.5977" y2="206.5977"/><text fill="#000000" font-family="sans-serif" font-size="13" lengthAdjust="spacingAndGlyphs" textLength="109" x="236" y="202.166">3. Friend Request</text><polygon fill="#A80036" points="240,231.9082,230,235.9082,240,239.9082,236,235.9082" style="stroke: #A80036; stroke-width: 1.0;"/><line style="stroke: #A80036; stroke-width: 1.0;" x1="234" x2="499.5" y1="235.9082" y2="235.9082"/><text fill="#000000" font-family="sans-serif" font-size="13" lengthAdjust="spacingAndGlyphs" textLength="110" x="246" y="231.4766">4. ?Acknowledge?</text><polygon fill="#A80036" points="598,261.2188,608,265.2188,598,269.2188,602,265.2188" style="stroke: #A80036; stroke-width: 1.0;"/><line style="stroke: #A80036; stroke-width: 1.0;" x1="500.5" x2="604" y1="265.2188" y2="265.2188"/><text fill="#000000" font-family="sans-serif" font-size="13" lengthAdjust="spacingAndGlyphs" textLength="85" x="507.5" y="260.7871">5. Forward FR</text><polygon fill="#A80036" points="621,290.5293,611,294.5293,621,298.5293,617,294.5293" style="stroke: #A80036; stroke-width: 1.0;"/><line style="stroke: #A80036; stroke-width: 1.0;" x1="615" x2="720" y1="294.5293" y2="294.5293"/><text fill="#000000" font-family="sans-serif" font-size="13" lengthAdjust="spacingAndGlyphs" textLength="87" x="627" y="290.0977">6. Approve FR</text><polygon fill="#A80036" points="240,319.8398,230,323.8398,240,327.8398,236,323.8398" style="stroke: #A80036; stroke-width: 1.0;"/><line style="stroke: #A80036; stroke-width: 1.0;" x1="234" x2="609" y1="323.8398" y2="323.8398"/><text fill="#000000" font-family="sans-serif" font-size="13" lengthAdjust="spacingAndGlyphs" textLength="83" x="246" y="319.4082">7.Approve FR</text><!--
@startuml

title "Friend Request (FR)"

actor "New Friend X" as X
boundary "Soical Network\nClient" as SSCX
boundary "Friend Y's\nFOAF" as FOAF
control "Friend Y's\nPrivate Node" as Node
boundary "Soical Network\nClient" as SSCY
actor "Friend Y" as Y

X -> SSCX : 1. URL of Friend Y FOAF
SSCX -> FOAF : 2. Gets Private Node URL
SSCX -> Node : 3. Friend Request
Node -> SSCX : 4. ?Acknowledge?
Node -> SSCY : 5. Forward FR
Y -> SSCY : 6. Approve FR
SSCY -> SSCX : 7.Approve FR

@enduml

PlantUML version 1.2017.20(Tue Dec 12 05:57:05 NZDT 2017)
(GPL source distribution)
Java Runtime: Java(TM) SE Runtime Environment
JVM: Java HotSpot(TM) 64-Bit Server VM
Java Version: 1.8.0_131-b11
Operating System: Mac OS X
OS Version: 10.13.4
Default Encoding: UTF-8
Language: en
Country: AU
--></g></svg>